<mxfile host="app.diagrams.net" modified="2021-07-13T10:07:34.643Z" agent="5.0 (Macintosh; Intel Mac OS X 10_15_7) AppleWebKit/537.36 (KHTML, like Gecko) Chrome/91.0.4472.114 Safari/537.36" etag="qtUJePf7kUkQcbl7F72-" version="14.8.5" type="github">
  <diagram id="v0YHuoF8Vc3aHIiHACa5" name="Page-1">
    <mxGraphModel dx="1412" dy="780" grid="1" gridSize="10" guides="1" tooltips="1" connect="1" arrows="1" fold="1" page="1" pageScale="1" pageWidth="827" pageHeight="1169" math="0" shadow="0">
      <root>
        <mxCell id="0" />
        <mxCell id="1" parent="0" />
        <mxCell id="upZtALpaKeB0go2-AOh5-28" style="edgeStyle=entityRelationEdgeStyle;rounded=0;orthogonalLoop=1;jettySize=auto;html=1;" edge="1" parent="1" source="upZtALpaKeB0go2-AOh5-1">
          <mxGeometry relative="1" as="geometry">
            <mxPoint x="260" y="214" as="targetPoint" />
          </mxGeometry>
        </mxCell>
        <mxCell id="upZtALpaKeB0go2-AOh5-31" value="parse" style="edgeLabel;html=1;align=center;verticalAlign=middle;resizable=0;points=[];" vertex="1" connectable="0" parent="upZtALpaKeB0go2-AOh5-28">
          <mxGeometry x="-0.1" y="-1" relative="1" as="geometry">
            <mxPoint as="offset" />
          </mxGeometry>
        </mxCell>
        <mxCell id="upZtALpaKeB0go2-AOh5-1" value="源代码" style="rounded=1;whiteSpace=wrap;html=1;fillColor=#60a917;strokeColor=#2D7600;fontColor=#ffffff;" vertex="1" parent="1">
          <mxGeometry y="189" width="100" height="50" as="geometry" />
        </mxCell>
        <mxCell id="upZtALpaKeB0go2-AOh5-4" value="目标代码" style="rounded=1;whiteSpace=wrap;html=1;fillColor=#0050ef;strokeColor=#001DBC;fontColor=#ffffff;" vertex="1" parent="1">
          <mxGeometry x="727" y="190" width="100" height="50" as="geometry" />
        </mxCell>
        <mxCell id="upZtALpaKeB0go2-AOh5-17" style="edgeStyle=none;rounded=0;orthogonalLoop=1;jettySize=auto;html=1;entryX=0.5;entryY=0;entryDx=0;entryDy=0;" edge="1" parent="1" source="upZtALpaKeB0go2-AOh5-19" target="upZtALpaKeB0go2-AOh5-20">
          <mxGeometry relative="1" as="geometry" />
        </mxCell>
        <mxCell id="upZtALpaKeB0go2-AOh5-18" style="edgeStyle=none;rounded=0;orthogonalLoop=1;jettySize=auto;html=1;entryX=0.5;entryY=0;entryDx=0;entryDy=0;" edge="1" parent="1" source="upZtALpaKeB0go2-AOh5-19" target="upZtALpaKeB0go2-AOh5-21">
          <mxGeometry relative="1" as="geometry" />
        </mxCell>
        <mxCell id="upZtALpaKeB0go2-AOh5-19" value="" style="whiteSpace=wrap;html=1;aspect=fixed;fillColor=#1ba1e2;strokeColor=#006EAF;fontColor=#ffffff;" vertex="1" parent="1">
          <mxGeometry x="285" y="154" width="40" height="40" as="geometry" />
        </mxCell>
        <mxCell id="upZtALpaKeB0go2-AOh5-20" value="" style="whiteSpace=wrap;html=1;aspect=fixed;fillColor=#1ba1e2;strokeColor=#006EAF;fontColor=#ffffff;" vertex="1" parent="1">
          <mxGeometry x="240" y="234" width="40" height="40" as="geometry" />
        </mxCell>
        <mxCell id="upZtALpaKeB0go2-AOh5-21" value="" style="whiteSpace=wrap;html=1;aspect=fixed;fillColor=#1ba1e2;strokeColor=#006EAF;fontColor=#ffffff;" vertex="1" parent="1">
          <mxGeometry x="325" y="234" width="40" height="40" as="geometry" />
        </mxCell>
        <mxCell id="upZtALpaKeB0go2-AOh5-23" style="edgeStyle=none;rounded=0;orthogonalLoop=1;jettySize=auto;html=1;entryX=0.5;entryY=0;entryDx=0;entryDy=0;" edge="1" parent="1" source="upZtALpaKeB0go2-AOh5-25" target="upZtALpaKeB0go2-AOh5-26">
          <mxGeometry relative="1" as="geometry" />
        </mxCell>
        <mxCell id="upZtALpaKeB0go2-AOh5-24" style="edgeStyle=none;rounded=0;orthogonalLoop=1;jettySize=auto;html=1;entryX=0.5;entryY=0;entryDx=0;entryDy=0;" edge="1" parent="1" source="upZtALpaKeB0go2-AOh5-25" target="upZtALpaKeB0go2-AOh5-27">
          <mxGeometry relative="1" as="geometry" />
        </mxCell>
        <mxCell id="upZtALpaKeB0go2-AOh5-25" value="" style="whiteSpace=wrap;html=1;aspect=fixed;fillColor=#1ba1e2;strokeColor=#006EAF;fontColor=#ffffff;" vertex="1" parent="1">
          <mxGeometry x="525" y="154" width="40" height="40" as="geometry" />
        </mxCell>
        <mxCell id="upZtALpaKeB0go2-AOh5-26" value="" style="whiteSpace=wrap;html=1;aspect=fixed;fillColor=#1ba1e2;strokeColor=#006EAF;fontColor=#ffffff;" vertex="1" parent="1">
          <mxGeometry x="480" y="234" width="40" height="40" as="geometry" />
        </mxCell>
        <mxCell id="upZtALpaKeB0go2-AOh5-27" value="" style="whiteSpace=wrap;html=1;aspect=fixed;fillColor=#1ba1e2;strokeColor=#006EAF;fontColor=#ffffff;" vertex="1" parent="1">
          <mxGeometry x="565" y="234" width="40" height="40" as="geometry" />
        </mxCell>
        <mxCell id="upZtALpaKeB0go2-AOh5-29" value="" style="endArrow=classic;html=1;" edge="1" parent="1">
          <mxGeometry width="50" height="50" relative="1" as="geometry">
            <mxPoint x="380" y="214" as="sourcePoint" />
            <mxPoint x="480" y="214" as="targetPoint" />
          </mxGeometry>
        </mxCell>
        <mxCell id="upZtALpaKeB0go2-AOh5-32" value="transform" style="edgeLabel;html=1;align=center;verticalAlign=middle;resizable=0;points=[];" vertex="1" connectable="0" parent="upZtALpaKeB0go2-AOh5-29">
          <mxGeometry x="-0.08" y="4" relative="1" as="geometry">
            <mxPoint as="offset" />
          </mxGeometry>
        </mxCell>
        <mxCell id="upZtALpaKeB0go2-AOh5-30" value="" style="endArrow=classic;html=1;" edge="1" parent="1">
          <mxGeometry width="50" height="50" relative="1" as="geometry">
            <mxPoint x="610" y="213.5" as="sourcePoint" />
            <mxPoint x="710" y="213.5" as="targetPoint" />
          </mxGeometry>
        </mxCell>
        <mxCell id="upZtALpaKeB0go2-AOh5-33" value="generate" style="edgeLabel;html=1;align=center;verticalAlign=middle;resizable=0;points=[];" vertex="1" connectable="0" parent="upZtALpaKeB0go2-AOh5-30">
          <mxGeometry x="0.1" y="1" relative="1" as="geometry">
            <mxPoint y="1" as="offset" />
          </mxGeometry>
        </mxCell>
      </root>
    </mxGraphModel>
  </diagram>
</mxfile>
